<svg width="126" height="17" viewBox="0 0 126 17" fill="none" xmlns="http://www.w3.org/2000/svg">
<path fill-rule="evenodd" clip-rule="evenodd" d="M49.5275 12.3702H49.3418C48.2674 12.3702 47.5863 11.4687 47.5863 9.87818C47.5863 8.28814 48.2674 7.38664 49.3418 7.38664H49.5275C50.5809 7.38664 51.2833 8.28814 51.2833 9.87818C51.2833 11.4687 50.5809 12.3702 49.5275 12.3702ZM49.7961 3.45221H49.1144C45.6655 3.45221 43.1459 5.56185 43.1044 9.87844C43.063 14.1743 45.6655 16.3047 49.1973 16.3047H49.8373C53.2038 16.3047 55.7237 14.195 55.7651 9.87844C55.8061 5.56185 53.2038 3.45221 49.7961 3.45221Z" fill="#333333"/>
<path fill-rule="evenodd" clip-rule="evenodd" d="M37.2579 7.91123H34.1103V3.71451H29.389V16.0424H34.1103V11.5834H37.2579V16.0424H41.9792V3.71451H37.2579V7.91123Z" fill="#333333"/>
<path fill-rule="evenodd" clip-rule="evenodd" d="M22.8316 5.68487L19.9251 8.43582H19.4218V3.71451H14.7005V16.0424H19.4218V13.1503L22.5329 10.5342H22.8316V16.0424H27.8152V3.71451H22.8316V5.68487Z" fill="#333333"/>
<path fill-rule="evenodd" clip-rule="evenodd" d="M13.8798 0.566956H8.84029L6.10744 6.07515H4.99557V0.566956H0.0119629V16.0424H4.99557V10.0096H6.00593L8.96409 16.0424H14.4167L10.3695 7.80184L13.8798 0.566956Z" fill="#333333"/>
<path fill-rule="evenodd" clip-rule="evenodd" d="M120.699 16.0424H125.987L122.176 9.44041L125.367 3.71451H120.431L118.028 7.91123H117.258V3.71451H112.274V16.0424H117.258V11.3211H118.014L120.699 16.0424Z" fill="#333333"/>
<path fill-rule="evenodd" clip-rule="evenodd" d="M56.6677 0.566956V16.0424H61.6513V4.50138H65.0611V16.0424H70.0448V0.566956H56.6677Z" fill="#333333"/>
<path fill-rule="evenodd" clip-rule="evenodd" d="M104.941 7.38664H105.127C106.035 7.38664 106.713 7.91123 106.841 8.96041H111.364C111.184 5.28828 108.658 3.45221 105.395 3.45221H104.713C101.264 3.45221 98.7446 5.56185 98.7034 9.87844C98.6622 14.1743 101.264 16.3047 104.796 16.3047H105.436C108.72 16.3047 111.204 14.4686 111.364 10.5342H106.861C106.787 11.5834 106.097 12.3702 105.127 12.3702H104.941C103.867 12.3702 103.185 11.4687 103.185 9.87818C103.185 8.28814 103.867 7.38664 104.941 7.38664Z" fill="#333333"/>
<path fill-rule="evenodd" clip-rule="evenodd" d="M77.4719 12.3702H77.2857C76.2118 12.3702 75.5304 11.4687 75.5304 9.87818C75.5304 8.28814 76.2118 7.38664 77.2857 7.38664H77.4719C78.525 7.38664 79.2272 8.28814 79.2272 9.87818C79.2272 11.4687 78.525 12.3702 77.4719 12.3702ZM77.74 3.45221H77.0588C73.6093 3.45221 71.0897 5.56185 71.0483 9.87844C71.0071 14.1743 73.6093 16.3047 77.1411 16.3047H77.7814C81.148 16.3047 83.6676 14.195 83.709 9.87844C83.7502 5.56185 81.148 3.45221 77.74 3.45221Z" fill="#333333"/>
<path fill-rule="evenodd" clip-rule="evenodd" d="M92.8644 5.68513L89.8992 8.43582H89.4546V3.71451H84.7333V16.0424H89.4546V13.1503L92.5067 10.5342H92.8644V16.0424H97.5857V3.71451H92.8644V5.68513Z" fill="#333333"/>
</svg>
